<svg xmlns="http://www.w3.org/2000/svg" viewBox="0 0 512 512">
<defs>
  <linearGradient id="g" x1="0" y1="0" x2="1" y2="1">
    <stop offset="0" stop-color="#ff3b30"/>
    <stop offset="1" stop-color="#ffcc00"/>
  </linearGradient>
</defs>
<rect width="512" height="512" rx="96" fill="#0b0f1a"/>
<circle cx="256" cy="230" r="150" fill="url(#g)" opacity="0.18"/>
<path d="M256 90c-62 34-110 94-110 164 0 67 49 122 110 122s110-55 110-122c0-70-48-130-110-164z" fill="url(#g)"/>
<path d="M202 290h108c18 0 32 14 32 32v64c0 18-14 32-32 32H202c-18 0-32-14-32-32v-64c0-18 14-32 32-32z" fill="#111827"/>
<path d="M230 250h52c10 0 18 8 18 18v22h-88v-22c0-10 8-18 18-18z" fill="#0b0f1a"/>
<text x="256" y="455" text-anchor="middle" font-family="Arial, Helvetica, sans-serif" font-weight="700" font-size="28" fill="#e5e7eb">ACADEMIA</text>
<text x="256" y="485" text-anchor="middle" font-family="Arial, Helvetica, sans-serif" font-weight="700" font-size="22" fill="#9ca3af">DO BRIGADISTA</text>
</svg>